<svg width="400" height="120" viewBox="0 0 400 120" fill="none" xmlns="http://www.w3.org/2000/svg">
  <!-- Background -->
  <rect x="0" y="0" width="400" height="120" rx="18" fill="#f6fafd"/>
  
  <!-- Airplane Icon -->
  <g>
    <ellipse cx="90" cy="60" rx="38" ry="38" fill="#e5f2fa" />
    <path d="M90 40 L105 60 L90 56 L75 60 Z" fill="#3399e6" stroke="#2471a3" stroke-width="2"/>
    <rect x="86" y="55" width="8" height="27" rx="3" fill="#2471a3"/>
    <rect x="90" y="77" width="14" height="4" rx="2" fill="#68b0e9"/>
    <rect x="76" y="77" width="14" height="4" rx="2" fill="#68b0e9"/>
  </g>
  
  <!-- Work Order List (stylized checklist) -->
  <g>
    <rect x="160" y="30" width="180" height="60" rx="10" fill="#ffffff" stroke="#3399e6" stroke-width="2"/>
    <rect x="175" y="45" width="16" height="16" rx="4" fill="#e5f2fa"/>
    <rect x="200" y="45" width="100" height="10" rx="5" fill="#d1e7fa"/>
    <rect x="175" y="65" width="16" height="16" rx="4" fill="#e5f2fa"/>
    <rect x="200" y="65" width="60" height="10" rx="5" fill="#d1e7fa"/>
    <rect x="175" y="85" width="16" height="16" rx="4" fill="#e5f2fa"/>
    <rect x="200" y="85" width="120" height="10" rx="5" fill="#d1e7fa"/>
    <!-- Checkmarks -->
    <polyline points="179,53 184,59 189,49" fill="none" stroke="#3399e6" stroke-width="2"/>
    <polyline points="179,73 184,79 189,69" fill="none" stroke="#3399e6" stroke-width="2"/>
    <polyline points="179,93 184,99 189,89" fill="none" stroke="#3399e6" stroke-width="2"/>
  </g>
  
  <!-- Title Text -->
  <text x="30" y="110" font-family="Segoe UI, Arial, Helvetica, sans-serif" font-size="24" font-weight="bold" fill="#2471a3">
    Flights Work Orders
  </text>
</svg>